<svg xmlns="http://www.w3.org/2000/svg" xmlns:xlink="http://www.w3.org/1999/xlink" width="512" zoomAndPan="magnify" viewBox="0 0 384 383.999986" height="512" preserveAspectRatio="xMidYMid meet" version="1.0"><defs><clipPath id="d3a682c2f8"><path d="M 19 13 L 355 13 L 355 369 L 19 369 Z M 19 13 " clip-rule="nonzero"/></clipPath><clipPath id="a9ea9a06b4"><path d="M 262.101562 -57.425781 L 429.777344 89.207031 L 121.695312 441.5 L -45.980469 294.863281 Z M 262.101562 -57.425781 " clip-rule="nonzero"/></clipPath><clipPath id="d4abd32b18"><path d="M 262.101562 -57.425781 L 429.777344 89.207031 L 121.695312 441.5 L -45.980469 294.863281 Z M 262.101562 -57.425781 " clip-rule="nonzero"/></clipPath></defs><g clip-path="url(#d3a682c2f8)"><g clip-path="url(#a9ea9a06b4)"><g clip-path="url(#d4abd32b18)"><path fill="#ffffff" d="M 253.253906 275.019531 C 254.679688 270.769531 255.703125 266.421875 256.328125 261.984375 C 256.949219 257.542969 257.160156 253.082031 256.964844 248.601562 C 256.765625 244.125 256.15625 239.699219 255.140625 235.332031 C 254.125 230.964844 252.722656 226.726562 250.925781 222.617188 C 249.625 219.808594 248.148438 217.09375 246.496094 214.476562 C 244.847656 211.859375 243.035156 209.355469 241.058594 206.972656 C 239.085938 204.585938 236.964844 202.339844 234.703125 200.226562 C 232.4375 198.117188 230.046875 196.160156 227.53125 194.359375 C 225.015625 192.554688 222.390625 190.921875 219.664062 189.457031 C 216.9375 187.992188 214.125 186.710938 211.234375 185.609375 C 208.339844 184.507812 205.386719 183.597656 202.378906 182.878906 C 199.367188 182.15625 196.324219 181.632812 193.242188 181.304688 C 195.371094 177.863281 197.339844 174.433594 199.550781 171.0625 C 203.4375 164.597656 207.710938 158.027344 212.070312 151.527344 C 221.832031 151.226562 231.496094 150.105469 241.070312 148.171875 C 246.929688 147.242188 252.699219 145.902344 258.367188 144.152344 C 264.039062 142.40625 269.558594 140.265625 274.925781 137.730469 C 280.292969 135.199219 285.453125 132.300781 290.410156 129.035156 C 295.363281 125.769531 300.0625 122.167969 304.507812 118.234375 C 356.480469 69.582031 361.859375 29.078125 346.839844 18.296875 C 312.703125 -3.457031 271.535156 51.699219 230.683594 110.371094 C 222.167969 111.886719 213.597656 112.933594 204.96875 113.507812 L 189.324219 114.554688 C 184.152344 114.742188 178.460938 115.359375 172.878906 116.519531 C 161.121094 117.589844 149.601562 119.882812 138.332031 123.40625 C 127.058594 126.929688 116.285156 131.597656 106.007812 137.417969 C 103.359375 138.890625 100.789062 140.492188 98.300781 142.226562 C 95.8125 143.960938 93.421875 145.8125 91.121094 147.789062 C 88.820312 149.765625 86.625 151.851562 84.535156 154.050781 C 82.449219 156.246094 80.476562 158.542969 78.617188 160.941406 C 76.761719 163.339844 75.03125 165.824219 73.425781 168.394531 C 71.820312 170.96875 70.351562 173.613281 69.011719 176.335938 C 67.675781 179.058594 66.480469 181.839844 65.421875 184.679688 C 64.367188 187.523438 63.457031 190.410156 62.695312 193.347656 C 61.46875 198.902344 60.742188 204.527344 60.511719 210.210938 C 60.28125 215.898438 60.554688 221.5625 61.328125 227.199219 C 62.101562 232.839844 63.363281 238.367188 65.113281 243.78125 C 66.863281 249.195312 69.078125 254.414062 71.753906 259.4375 C 76.464844 268.367188 82.078125 276.6875 88.597656 284.398438 C 95.113281 292.109375 102.382812 299.035156 110.402344 305.167969 C 105.179688 314 100.019531 322.597656 94.894531 330.480469 C 83.28125 353.019531 62.175781 364.019531 45.542969 359.632812 C 44.304688 359.273438 43.09375 358.839844 41.910156 358.324219 C 40.726562 357.8125 39.582031 357.226562 38.472656 356.566406 C 37.367188 355.90625 36.304688 355.179688 35.289062 354.382812 C 34.277344 353.585938 33.316406 352.726562 32.414062 351.808594 C 31.507812 350.890625 30.667969 349.917969 29.886719 348.890625 C 29.105469 347.863281 28.398438 346.789062 27.753906 345.671875 C 27.113281 344.550781 26.546875 343.398438 26.050781 342.207031 C 25.558594 341.015625 25.144531 339.796875 24.804688 338.550781 L 26.640625 340.15625 C 27.140625 340.621094 27.660156 341.0625 28.203125 341.476562 C 28.746094 341.890625 29.308594 342.277344 29.890625 342.636719 C 30.46875 342.996094 31.066406 343.324219 31.679688 343.625 C 32.292969 343.921875 32.921875 344.191406 33.5625 344.429688 C 34.199219 344.667969 34.851562 344.875 35.511719 345.046875 C 36.171875 345.21875 36.839844 345.359375 37.511719 345.46875 C 38.1875 345.578125 38.863281 345.652344 39.546875 345.691406 C 40.226562 345.730469 40.910156 345.738281 41.59375 345.710938 C 42.273438 345.683594 42.953125 345.625 43.628906 345.53125 C 44.304688 345.4375 44.976562 345.3125 45.640625 345.152344 C 46.304688 344.992188 46.957031 344.796875 47.601562 344.574219 C 48.246094 344.347656 48.878906 344.09375 49.5 343.804688 C 50.117188 343.519531 50.722656 343.203125 51.308594 342.855469 C 51.898438 342.507812 52.46875 342.132812 53.019531 341.730469 C 53.570312 341.328125 54.097656 340.898438 54.609375 340.441406 C 55.117188 339.988281 55.601562 339.507812 56.0625 339.003906 C 56.523438 338.5 56.960938 337.976562 57.371094 337.429688 C 57.777344 336.882812 58.160156 336.320312 58.515625 335.734375 C 58.867188 335.152344 59.191406 334.550781 59.484375 333.933594 C 59.78125 333.320312 60.042969 332.691406 60.277344 332.046875 C 60.507812 331.40625 60.707031 330.753906 60.875 330.09375 C 61.042969 329.429688 61.179688 328.761719 61.28125 328.085938 C 61.382812 327.410156 61.449219 326.734375 61.484375 326.050781 C 61.519531 325.371094 61.519531 324.6875 61.488281 324.007812 C 61.453125 323.324219 61.386719 322.644531 61.289062 321.96875 C 61.1875 321.292969 61.054688 320.625 60.890625 319.964844 C 60.726562 319.300781 60.527344 318.648438 60.296875 318.007812 C 60.066406 317.363281 59.804688 316.734375 59.511719 316.117188 C 59.21875 315.5 58.898438 314.898438 58.546875 314.3125 C 58.195312 313.730469 57.8125 313.164062 57.40625 312.613281 C 57 312.066406 56.566406 311.542969 56.105469 311.035156 C 55.644531 310.53125 55.160156 310.050781 54.652344 309.59375 C 54.148438 309.136719 53.617188 308.707031 53.066406 308.300781 C 52.519531 307.898438 51.949219 307.519531 51.363281 307.171875 C 50.777344 306.824219 50.171875 306.503906 49.554688 306.214844 C 48.9375 305.925781 48.304688 305.667969 47.660156 305.441406 C 47.015625 305.214844 46.363281 305.023438 45.699219 304.859375 C 45.035156 304.699219 44.367188 304.570312 43.691406 304.472656 C 43.015625 304.378906 42.335938 304.316406 41.652344 304.285156 C 40.972656 304.257812 40.289062 304.261719 39.609375 304.300781 C 38.925781 304.339844 38.25 304.410156 37.574219 304.515625 C 36.898438 304.625 36.230469 304.761719 35.570312 304.933594 C 34.910156 305.105469 34.257812 305.308594 33.617188 305.542969 C 32.976562 305.78125 32.351562 306.046875 31.734375 306.34375 C 31.121094 306.644531 30.523438 306.96875 29.941406 307.328125 C 29.359375 307.683594 28.796875 308.070312 28.253906 308.480469 C 27.710938 308.894531 27.1875 309.332031 26.6875 309.796875 C 26.183594 310.261719 25.710938 310.75 25.257812 311.261719 C 24.671875 311.929688 24.089844 312.59375 23.503906 313.261719 C 22.214844 315.085938 21.25 317.066406 20.613281 319.207031 C 19.976562 321.347656 19.699219 323.535156 19.785156 325.769531 L 19.515625 328.769531 C 19.480469 330.714844 19.589844 332.652344 19.839844 334.582031 C 20.09375 336.507812 20.492188 338.40625 21.027344 340.277344 C 21.566406 342.144531 22.238281 343.964844 23.046875 345.730469 C 23.859375 347.5 24.792969 349.199219 25.855469 350.828125 C 26.921875 352.457031 28.097656 353.996094 29.390625 355.449219 C 30.6875 356.902344 32.082031 358.25 33.574219 359.492188 C 35.070312 360.734375 36.648438 361.863281 38.3125 362.867188 C 39.976562 363.875 41.707031 364.753906 43.5 365.503906 C 46.152344 366.582031 48.890625 367.355469 51.71875 367.816406 C 54.542969 368.277344 57.386719 368.421875 60.242188 368.242188 C 63.101562 368.066406 65.902344 367.574219 68.648438 366.765625 C 71.394531 365.953125 74.019531 364.851562 76.515625 363.449219 C 82.3125 360.605469 87.316406 356.734375 91.53125 351.839844 C 95.5625 346.613281 99.257812 341.152344 102.609375 335.464844 C 107.683594 327.53125 112.78125 319.175781 117.902344 310.398438 C 125.160156 315.316406 132.835938 319.453125 140.933594 322.8125 C 149.027344 326.175781 157.378906 328.6875 165.984375 330.359375 C 170.703125 331.089844 175.449219 331.378906 180.226562 331.234375 C 185 331.089844 189.71875 330.507812 194.386719 329.488281 C 199.054688 328.472656 203.585938 327.035156 207.988281 325.179688 C 212.390625 323.324219 216.585938 321.082031 220.574219 318.453125 C 224.441406 315.90625 228.0625 313.046875 231.4375 309.875 C 234.8125 306.703125 237.890625 303.269531 240.675781 299.566406 C 243.460938 295.867188 245.90625 291.957031 248.019531 287.835938 C 250.132812 283.714844 251.875 279.441406 253.253906 275.019531 Z M 336.460938 43.976562 C 340.875 51.222656 334.328125 60.222656 329.648438 65.410156 C 324.0625 71.683594 317.808594 77.195312 310.886719 81.953125 C 303.964844 86.707031 296.574219 90.5625 288.714844 93.523438 C 273.789062 98.9375 258.621094 103.539062 243.207031 107.335938 C 286.96875 51.058594 327.550781 29.410156 336.460938 43.976562 Z M 87.132812 252.125 C 85.402344 247.980469 84.042969 243.71875 83.054688 239.335938 C 82.066406 234.957031 81.460938 230.523438 81.242188 226.039062 C 81.019531 221.554688 81.1875 217.082031 81.746094 212.628906 C 82.300781 208.171875 83.238281 203.796875 84.554688 199.503906 C 86.066406 195.402344 87.980469 191.5 90.292969 187.792969 C 92.609375 184.085938 95.273438 180.648438 98.292969 177.488281 C 101.308594 174.328125 104.617188 171.503906 108.214844 169.023438 C 111.808594 166.539062 115.621094 164.445312 119.644531 162.742188 C 128.433594 159.292969 137.460938 156.671875 146.726562 154.875 C 155.996094 153.078125 165.347656 152.140625 174.789062 152.058594 C 179.335938 151.914062 184.121094 151.828125 189.628906 151.929688 L 197.261719 152.125 L 202.765625 152.230469 L 192.875 167.582031 C 189.957031 172.097656 186.828125 177.023438 184.433594 181.109375 C 182.546875 181.082031 180.660156 181.125 178.777344 181.246094 C 176.894531 181.363281 175.019531 181.558594 173.152344 181.828125 C 171.285156 182.09375 169.433594 182.4375 167.59375 182.851562 C 165.753906 183.269531 163.929688 183.753906 162.128906 184.316406 C 160.328125 184.875 158.550781 185.503906 156.800781 186.203125 C 155.046875 186.90625 153.328125 187.671875 151.636719 188.511719 C 149.945312 189.347656 148.289062 190.25 146.671875 191.21875 C 145.050781 192.1875 143.472656 193.214844 141.9375 194.308594 C 140.398438 195.402344 138.90625 196.554688 137.460938 197.765625 C 136.015625 198.976562 134.621094 200.246094 133.273438 201.566406 C 131.929688 202.886719 130.636719 204.261719 129.398438 205.6875 C 128.164062 207.109375 126.984375 208.582031 125.863281 210.101562 C 124.746094 211.617188 123.6875 213.175781 122.6875 214.777344 C 121.691406 216.378906 120.761719 218.019531 119.894531 219.695312 C 119.027344 221.371094 118.230469 223.078125 117.496094 224.816406 C 116.765625 226.554688 116.105469 228.320312 115.511719 230.113281 C 114.074219 233.949219 112.949219 237.871094 112.136719 241.886719 L 111.535156 245.777344 C 114.148438 241.109375 117.042969 236.621094 120.21875 232.3125 C 124.113281 226.730469 128.664062 221.746094 133.875 217.359375 C 139.082031 212.976562 144.765625 209.339844 150.933594 206.449219 C 157.683594 203.347656 164.765625 201.589844 172.183594 201.179688 C 160.425781 220.347656 149.699219 238.507812 139.152344 255.792969 C 131.09375 269.214844 123.558594 282.210938 116.21875 294.644531 C 109.769531 288.796875 104.085938 282.28125 99.171875 275.097656 C 94.257812 267.910156 90.246094 260.253906 87.132812 252.125 Z M 213.832031 309.320312 C 212.230469 310.625 210.558594 311.839844 208.820312 312.957031 C 207.078125 314.078125 205.28125 315.09375 203.429688 316.011719 C 201.574219 316.929688 199.675781 317.742188 197.730469 318.445312 C 195.785156 319.152344 193.808594 319.746094 191.796875 320.230469 C 189.785156 320.714844 187.753906 321.082031 185.703125 321.339844 C 183.648438 321.597656 181.589844 321.738281 179.523438 321.761719 C 177.453125 321.789062 175.390625 321.699219 173.332031 321.492188 C 171.273438 321.285156 169.234375 320.96875 167.210938 320.535156 C 159.347656 318.933594 151.777344 316.457031 144.492188 313.09375 C 137.203125 309.734375 130.402344 305.582031 124.085938 300.636719 C 131.558594 287.882812 139.207031 274.25 147.214844 260.042969 C 157.742188 241.269531 169.21875 221.410156 181.070312 201.289062 C 182.097656 201.359375 183.125 201.453125 184.148438 201.574219 C 185.171875 201.695312 186.195312 201.84375 187.210938 202.023438 C 188.226562 202.199219 189.238281 202.402344 190.242188 202.632812 C 191.246094 202.863281 192.246094 203.121094 193.238281 203.40625 C 194.230469 203.6875 195.210938 204 196.1875 204.335938 C 197.160156 204.671875 198.128906 205.035156 199.082031 205.421875 C 200.039062 205.8125 200.984375 206.222656 201.917969 206.664062 C 202.851562 207.101562 203.769531 207.566406 204.679688 208.050781 C 205.589844 208.539062 206.484375 209.050781 207.363281 209.589844 C 208.246094 210.125 209.113281 210.683594 209.964844 211.265625 C 210.816406 211.847656 211.652344 212.453125 212.46875 213.078125 C 213.289062 213.703125 214.089844 214.351562 214.875 215.023438 C 215.660156 215.691406 216.425781 216.382812 217.171875 217.09375 C 217.921875 217.804688 218.648438 218.535156 219.355469 219.285156 C 220.066406 220.03125 220.753906 220.800781 221.421875 221.585938 C 222.089844 222.375 222.734375 223.175781 223.359375 223.996094 C 223.984375 224.820312 224.585938 225.65625 225.164062 226.507812 C 225.746094 227.363281 226.300781 228.230469 226.835938 229.113281 C 227.367188 229.996094 227.878906 230.890625 228.363281 231.800781 C 228.847656 232.710938 229.308594 233.632812 229.746094 234.570312 C 230.179688 235.503906 230.59375 236.449219 230.976562 237.40625 C 231.363281 238.363281 231.722656 239.328125 232.058594 240.304688 C 232.390625 241.28125 232.699219 242.265625 232.980469 243.257812 C 233.261719 244.25 233.515625 245.25 233.742188 246.253906 C 233.96875 247.261719 234.171875 248.273438 234.34375 249.289062 C 234.519531 250.304688 234.664062 251.324219 234.785156 252.351562 C 234.902344 253.375 234.996094 254.402344 235.058594 255.429688 C 235.125 256.460938 235.160156 257.492188 235.167969 258.523438 C 235.179688 259.554688 235.160156 260.585938 235.113281 261.613281 C 235.066406 262.644531 234.996094 263.671875 234.894531 264.699219 C 234.792969 265.726562 234.664062 266.75 234.507812 267.769531 C 234.351562 268.789062 234.171875 269.804688 233.960938 270.8125 C 233.488281 274.488281 232.695312 278.097656 231.582031 281.632812 C 230.46875 285.167969 229.054688 288.578125 227.335938 291.863281 C 225.621094 295.148438 223.628906 298.257812 221.359375 301.191406 C 219.089844 304.121094 216.582031 306.832031 213.832031 309.320312 Z M 213.832031 309.320312 " fill-opacity="1" fill-rule="nonzero"/></g></g></g></svg>